<svg width="101" height="113" viewBox="0 0 101 113" fill="none" xmlns="http://www.w3.org/2000/svg">
  <path stroke="#160000" d="M80.05 107.398c-21.944 12.67-52.875.18-69.085-27.896m69.086 27.896c21.945-12.67 26.594-45.702 10.384-73.778M80.05 107.398c-19.686 11.366-48.786-2.181-64.996-30.258C-1.155 49.063 1.663 17.09 21.35 5.723m58.702 101.675c19.686-11.366 22.504-43.34 6.293-71.417C70.134 7.904 41.034-5.642 21.35 5.723m58.702 101.675c-10.973 6.335-33.009-11.29-49.219-39.367-16.21-28.077-20.456-55.973-9.483-62.308m58.702 101.675c10.972-6.335 6.726-34.231-9.484-62.308C54.357 17.013 32.322-.612 21.35 5.723m58.702 101.675c3.74-2.159-6.262-26.77-22.456-54.818S25.089 3.564 21.349 5.723m58.702 101.675c-3.74 2.159-20.053-18.808-36.246-46.856C27.61 32.493 17.609 7.882 21.349 5.723M10.965 79.502C-5.245 51.425-.596 18.393 21.349 5.723M10.965 79.502c11.366 19.686 38.37 25.373 60.314 12.703 21.946-12.67 30.522-38.9 19.156-58.585m-79.47 45.882C-.401 59.816 8.175 33.586 30.121 20.916c21.945-12.67 48.948-6.982 60.314 12.704m-79.47 45.882c6.335 10.972 29.26 9.596 51.206-3.074C84.115 63.758 96.77 44.592 90.434 33.62m-79.47 45.882C4.63 68.529 17.285 49.363 39.23 36.693c21.945-12.67 44.87-14.046 51.205-3.073M21.349 5.723c21.945-12.67 52.876-.18 69.086 27.897M54.749 63.573C32.778 76.258 13.192 83.358 11.033 79.618c-2.16-3.74 13.783-17.15 35.754-29.836 21.97-12.685 41.557-19.785 43.716-16.045 2.159 3.74-13.783 17.15-35.754 29.836Z" />
</svg>
