<svg width="73" height="72" fill="none" xmlns="http://www.w3.org/2000/svg">
  <path d="M22.445.002h-2.482v2.483h2.482V.002ZM24.928.002h-2.483v2.483h2.483V.002ZM27.41.002h-2.482v2.483h2.483V.002ZM32.376.002h-2.483v2.483h2.483V.002ZM37.34.002h-2.482v2.483h2.483V.002ZM49.754.002H47.27v2.483h2.483V.002ZM52.236.002h-2.482v2.483h2.482V.002ZM22.445 2.485h-2.482v2.483h2.482V2.485ZM24.928 2.485h-2.483v2.483h2.483V2.485ZM27.41 2.485h-2.482v2.483h2.483V2.485ZM44.789 2.485h-2.483v2.483h2.483V2.485ZM52.236 2.485h-2.482v2.483h2.482V2.485ZM22.445 4.968h-2.482V7.45h2.482V4.968ZM27.41 4.968h-2.482V7.45h2.483V4.968ZM29.893 4.968h-2.482V7.45h2.482V4.968ZM34.858 4.968h-2.482V7.45h2.482V4.968ZM39.824 4.968H37.34V7.45h2.483V4.968ZM42.306 4.968h-2.482V7.45h2.482V4.968ZM44.789 4.968h-2.483V7.45h2.483V4.968ZM49.754 4.968H47.27V7.45h2.483V4.968ZM52.236 4.968h-2.482V7.45h2.482V4.968ZM22.445 7.45h-2.482v2.483h2.482V7.45ZM24.928 7.45h-2.483v2.483h2.483V7.45ZM29.893 7.45h-2.482v2.483h2.482V7.45ZM37.34 7.45h-2.482v2.483h2.483V7.45Z" fill="#000"/>
  <path d="M39.824 7.45H37.34v2.483h2.483V7.45ZM44.789 7.45h-2.483v2.483h2.483V7.45ZM34.858 9.933h-2.482v2.482h2.482V9.933ZM37.34 9.933h-2.482v2.482h2.483V9.933Z" fill="#000"/>
  <path d="M39.824 9.933H37.34v2.482h2.483V9.933ZM22.445 12.415h-2.482v2.483h2.482v-2.483ZM29.893 12.415h-2.482v2.483h2.482v-2.483Z" fill="#000"/>
  <path d="M32.376 12.415h-2.483v2.483h2.483v-2.483ZM34.858 12.415h-2.482v2.483h2.482v-2.483ZM37.34 12.415h-2.482v2.483h2.483v-2.483Z" fill="#000"/>
  <path d="M39.824 12.415H37.34v2.483h2.483v-2.483ZM42.306 12.415h-2.482v2.483h2.482v-2.483ZM44.789 12.415h-2.483v2.483h2.483v-2.483ZM52.236 12.415h-2.482v2.483h2.482v-2.483ZM22.445 14.898h-2.482v2.483h2.482v-2.483ZM27.41 14.898h-2.482v2.483h2.483v-2.483ZM32.376 14.898h-2.483v2.483h2.483v-2.483ZM37.34 14.898h-2.482v2.483h2.483v-2.483ZM42.306 14.898h-2.482v2.483h2.482v-2.483ZM47.271 14.898H44.79v2.483h2.482v-2.483ZM52.236 14.898h-2.482v2.483h2.482v-2.483ZM24.928 17.38h-2.483v2.483h2.483v-2.482Z" fill="#000"/>
  <path d="M32.376 17.38h-2.483v2.483h2.483v-2.482ZM37.34 17.38h-2.482v2.483h2.483v-2.482ZM42.306 17.38h-2.482v2.483h2.482v-2.482ZM44.789 17.38h-2.483v2.483h2.483v-2.482ZM49.754 17.38H47.27v2.483h2.483v-2.482ZM52.236 17.38h-2.482v2.483h2.482v-2.482ZM2.585 19.863H.102v2.483h2.483v-2.483ZM5.067 19.863H2.585v2.483h2.482v-2.483ZM12.515 19.863h-2.483v2.483h2.483v-2.483Z" fill="#000"/>
  <path d="M14.998 19.863h-2.483v2.483h2.483v-2.483ZM17.48 19.863h-2.482v2.483h2.482v-2.483ZM29.893 19.863h-2.482v2.483h2.482v-2.483ZM34.858 19.863h-2.482v2.483h2.482v-2.483ZM37.34 19.863h-2.482v2.483h2.483v-2.483ZM44.789 19.863h-2.483v2.483h2.483v-2.483ZM47.271 19.863H44.79v2.483h2.482v-2.483Z" fill="#000"/>
  <path d="M49.754 19.863H47.27v2.483h2.483v-2.483ZM52.236 19.863h-2.482v2.483h2.482v-2.483ZM59.684 19.863h-2.482v2.483h2.482v-2.483ZM64.65 19.863h-2.483v2.483h2.482v-2.483Z" fill="#000"/>
  <path d="M67.132 19.863h-2.483v2.483h2.483v-2.483Z" fill="#000"/>
  <path d="M69.615 19.863h-2.483v2.483h2.483v-2.483ZM72.097 19.863h-2.482v2.483h2.482v-2.483ZM2.585 22.346H.102v2.482h2.483v-2.482ZM5.067 22.346H2.585v2.482h2.482v-2.482ZM12.515 22.346h-2.483v2.482h2.483v-2.482Z" fill="#000"/>
  <path d="M14.998 22.346h-2.483v2.482h2.483v-2.482ZM19.963 22.346H17.48v2.482h2.483v-2.482ZM22.445 22.346h-2.482v2.482h2.482v-2.482ZM24.928 22.346h-2.483v2.482h2.483v-2.482ZM27.41 22.346h-2.482v2.482h2.483v-2.482ZM32.376 22.346h-2.483v2.482h2.483v-2.482ZM39.824 22.346H37.34v2.482h2.483v-2.482ZM49.754 22.346H47.27v2.482h2.483v-2.482ZM67.132 22.346h-2.483v2.482h2.483v-2.482Z" fill="#000"/>
  <path d="M69.615 22.346h-2.483v2.482h2.483v-2.482ZM7.55 24.828H5.067v2.483H7.55v-2.483ZM10.032 24.828H7.55v2.483h2.482v-2.483ZM14.998 24.828h-2.483v2.483h2.483v-2.483ZM17.48 24.828h-2.482v2.483h2.482v-2.483ZM22.445 24.828h-2.482v2.483h2.482v-2.483ZM29.893 24.828h-2.482v2.483h2.482v-2.483Z" fill="#000"/>
  <path d="M32.376 24.828h-2.483v2.483h2.483v-2.483ZM34.858 24.828h-2.482v2.483h2.482v-2.483ZM37.34 24.828h-2.482v2.483h2.483v-2.483ZM47.271 24.828H44.79v2.483h2.482v-2.483ZM57.202 24.828h-2.483v2.483h2.483v-2.483ZM59.684 24.828h-2.482v2.483h2.482v-2.483ZM62.167 24.828h-2.483v2.483h2.483v-2.483ZM64.65 24.828h-2.483v2.483h2.482v-2.483ZM69.615 24.828h-2.483v2.483h2.483v-2.483ZM72.097 24.828h-2.482v2.483h2.482v-2.483ZM5.067 27.31H2.585v2.484h2.482V27.31ZM7.55 27.31H5.067v2.484H7.55V27.31ZM12.515 27.31h-2.483v2.484h2.483V27.31Z" fill="#000"/>
  <path d="M14.998 27.31h-2.483v2.484h2.483V27.31ZM27.41 27.31h-2.482v2.484h2.483V27.31ZM29.893 27.31h-2.482v2.484h2.482V27.31ZM34.858 27.31h-2.482v2.484h2.482V27.31ZM42.306 27.31h-2.482v2.484h2.482V27.31ZM49.754 27.31H47.27v2.484h2.483V27.31ZM52.236 27.31h-2.482v2.484h2.482V27.31ZM54.719 27.31h-2.483v2.484h2.483V27.31ZM64.65 27.31h-2.483v2.484h2.482V27.31ZM69.615 27.31h-2.483v2.484h2.483V27.31ZM72.097 27.31h-2.482v2.484h2.482V27.31ZM2.585 29.794H.102v2.482h2.483v-2.483ZM5.067 29.794H2.585v2.482h2.482v-2.483ZM7.55 29.794H5.067v2.482H7.55v-2.483Z" fill="#000"/>
  <path d="M12.515 29.794h-2.483v2.482h2.483v-2.483ZM17.48 29.794h-2.482v2.482h2.482v-2.483ZM19.963 29.794H17.48v2.482h2.483v-2.483ZM27.41 29.794h-2.482v2.482h2.483v-2.483ZM32.376 29.794h-2.483v2.482h2.483v-2.483ZM34.858 29.794h-2.482v2.482h2.482v-2.483ZM44.789 29.794h-2.483v2.482h2.483v-2.483ZM47.271 29.794H44.79v2.482h2.482v-2.483Z" fill="#000"/>
  <path d="M49.754 29.794H47.27v2.482h2.483v-2.483ZM54.719 29.794h-2.483v2.482h2.483v-2.483ZM64.65 29.794h-2.483v2.482h2.482v-2.483Z" fill="#000"/>
  <path d="M67.132 29.794h-2.483v2.482h2.483v-2.483Z" fill="#000"/>
  <path d="M69.615 29.794h-2.483v2.482h2.483v-2.483ZM2.585 32.276H.102v2.483h2.483v-2.483ZM10.032 32.276H7.55v2.483h2.482v-2.483ZM12.515 32.276h-2.483v2.483h2.483v-2.483ZM19.963 32.276H17.48v2.483h2.483v-2.483ZM22.445 32.276h-2.482v2.483h2.482v-2.483ZM24.928 32.276h-2.483v2.483h2.483v-2.483ZM34.858 32.276h-2.482v2.483h2.482v-2.483ZM37.34 32.276h-2.482v2.483h2.483v-2.483Z" fill="#000"/>
  <path d="M39.824 32.276H37.34v2.483h2.483v-2.483ZM54.719 32.276h-2.483v2.483h2.483v-2.483ZM67.132 32.276h-2.483v2.483h2.483v-2.483Z" fill="#000"/>
  <path d="M69.615 32.276h-2.483v2.483h2.483v-2.483ZM7.55 34.759H5.067v2.482H7.55V34.76ZM14.998 34.759h-2.483v2.482h2.483V34.76ZM17.48 34.759h-2.482v2.482h2.482V34.76ZM39.824 34.759H37.34v2.482h2.483V34.76ZM42.306 34.759h-2.482v2.482h2.482V34.76ZM49.754 34.759H47.27v2.482h2.483V34.76ZM57.202 34.759h-2.483v2.482h2.483V34.76ZM62.167 34.759h-2.483v2.482h2.483V34.76ZM2.585 37.241H.102v2.483h2.483V37.24ZM5.067 37.241H2.585v2.483h2.482V37.24Z" fill="#000"/>
  <path d="M7.55 37.241H5.067v2.483H7.55V37.24ZM12.515 37.241h-2.483v2.483h2.483V37.24ZM22.445 37.241h-2.482v2.483h2.482V37.24ZM24.928 37.241h-2.483v2.483h2.483V37.24ZM32.376 37.241h-2.483v2.483h2.483V37.24ZM37.34 37.241h-2.482v2.483h2.483V37.24Z" fill="#000"/>
  <path d="M39.824 37.241H37.34v2.483h2.483V37.24ZM49.754 37.241H47.27v2.483h2.483V37.24ZM52.236 37.241h-2.482v2.483h2.482V37.24ZM54.719 37.241h-2.483v2.483h2.483V37.24ZM59.684 37.241h-2.482v2.483h2.482V37.24ZM64.65 37.241h-2.483v2.483h2.482V37.24Z" fill="#000"/>
  <path d="M67.132 37.241h-2.483v2.483h2.483V37.24Z" fill="#000"/>
  <path d="M69.615 37.241h-2.483v2.483h2.483V37.24ZM72.097 37.241h-2.482v2.483h2.482V37.24ZM5.067 39.724H2.585v2.483h2.482v-2.483ZM10.032 39.724H7.55v2.483h2.482v-2.483ZM17.48 39.724h-2.482v2.483h2.482v-2.483ZM24.928 39.724h-2.483v2.483h2.483v-2.483ZM27.41 39.724h-2.482v2.483h2.483v-2.483ZM29.893 39.724h-2.482v2.483h2.482v-2.483ZM34.858 39.724h-2.482v2.483h2.482v-2.483ZM37.34 39.724h-2.482v2.483h2.483v-2.483ZM42.306 39.724h-2.482v2.483h2.482v-2.483ZM44.789 39.724h-2.483v2.483h2.483v-2.483ZM49.754 39.724H47.27v2.483h2.483v-2.483ZM54.719 39.724h-2.483v2.483h2.483v-2.483ZM57.202 39.724h-2.483v2.483h2.483v-2.483ZM59.684 39.724h-2.482v2.483h2.482v-2.483ZM67.132 39.724h-2.483v2.483h2.483v-2.483Z" fill="#000"/>
  <path d="M69.615 39.724h-2.483v2.483h2.483v-2.483ZM2.585 42.206H.102v2.483h2.483v-2.483ZM5.067 42.206H2.585v2.483h2.482v-2.483ZM10.032 42.206H7.55v2.483h2.482v-2.483ZM14.998 42.206h-2.483v2.483h2.483v-2.483ZM27.41 42.206h-2.482v2.483h2.483v-2.483ZM32.376 42.206h-2.483v2.483h2.483v-2.483ZM42.306 42.206h-2.482v2.483h2.482v-2.483ZM47.271 42.206H44.79v2.483h2.482v-2.483ZM59.684 42.206h-2.482v2.483h2.482v-2.483Z" fill="#000"/>
  <path d="M67.132 42.206h-2.483v2.483h2.483v-2.483ZM72.097 42.206h-2.482v2.483h2.482v-2.483ZM10.032 44.69H7.55v2.482h2.482v-2.483ZM12.515 44.69h-2.483v2.482h2.483v-2.483Z" fill="#000"/>
  <path d="M14.998 44.69h-2.483v2.482h2.483v-2.483ZM17.48 44.69h-2.482v2.482h2.482v-2.483ZM19.963 44.69H17.48v2.482h2.483v-2.483ZM27.41 44.69h-2.482v2.482h2.483v-2.483ZM29.893 44.69h-2.482v2.482h2.482v-2.483Z" fill="#000"/>
  <path d="M32.376 44.69h-2.483v2.482h2.483v-2.483ZM34.858 44.69h-2.482v2.482h2.482v-2.483ZM37.34 44.69h-2.482v2.482h2.483v-2.483Z" fill="#000"/>
  <path d="M39.824 44.69H37.34v2.482h2.483v-2.483ZM47.271 44.69H44.79v2.482h2.482v-2.483ZM52.236 44.69h-2.482v2.482h2.482v-2.483ZM57.202 44.69h-2.483v2.482h2.483v-2.483ZM59.684 44.69h-2.482v2.482h2.482v-2.483ZM64.65 44.69h-2.483v2.482h2.482v-2.483ZM69.615 44.69h-2.483v2.482h2.483v-2.483ZM72.097 44.69h-2.482v2.482h2.482v-2.483ZM7.55 47.172H5.067v2.482H7.55v-2.482ZM12.515 47.172h-2.483v2.482h2.483v-2.482Z" fill="#000"/>
  <path d="M14.998 47.172h-2.483v2.482h2.483v-2.482ZM19.963 47.172H17.48v2.482h2.483v-2.482ZM24.928 47.172h-2.483v2.482h2.483v-2.482ZM29.893 47.172h-2.482v2.482h2.482v-2.482ZM34.858 47.172h-2.482v2.482h2.482v-2.482ZM39.824 47.172H37.34v2.482h2.483v-2.482ZM44.789 47.172h-2.483v2.482h2.483v-2.482ZM49.754 47.172H47.27v2.482h2.483v-2.482ZM52.236 47.172h-2.482v2.482h2.482v-2.482ZM54.719 47.172h-2.483v2.482h2.483v-2.482ZM69.615 47.172h-2.483v2.482h2.483v-2.482ZM2.585 49.654H.102v2.483h2.483v-2.483ZM5.067 49.654H2.585v2.483h2.482v-2.483ZM7.55 49.654H5.067v2.483H7.55v-2.483ZM12.515 49.654h-2.483v2.483h2.483v-2.483Z" fill="#000"/>
  <path d="M14.998 49.654h-2.483v2.483h2.483v-2.483ZM17.48 49.654h-2.482v2.483h2.482v-2.483ZM22.445 49.654h-2.482v2.483h2.482v-2.483ZM27.41 49.654h-2.482v2.483h2.483v-2.483ZM32.376 49.654h-2.483v2.483h2.483v-2.483ZM34.858 49.654h-2.482v2.483h2.482v-2.483ZM42.306 49.654h-2.482v2.483h2.482v-2.483ZM49.754 49.654H47.27v2.483h2.483v-2.483ZM52.236 49.654h-2.482v2.483h2.482v-2.483ZM54.719 49.654h-2.483v2.483h2.483v-2.483ZM57.202 49.654h-2.483v2.483h2.483v-2.483ZM59.684 49.654h-2.482v2.483h2.482v-2.483ZM62.167 49.654h-2.483v2.483h2.483v-2.483ZM22.445 52.137h-2.482v2.482h2.482v-2.482ZM34.858 52.137h-2.482v2.482h2.482v-2.482ZM37.34 52.137h-2.482v2.482h2.483v-2.482Z" fill="#000"/>
  <path d="M39.824 52.137H37.34v2.482h2.483v-2.482ZM47.271 52.137H44.79v2.482h2.482v-2.482Z" fill="#000"/>
  <path d="M49.754 52.137H47.27v2.482h2.483v-2.482ZM52.236 52.137h-2.482v2.482h2.482v-2.482ZM62.167 52.137h-2.483v2.482h2.483v-2.482ZM67.132 52.137h-2.483v2.482h2.483v-2.482ZM24.928 54.62h-2.483v2.482h2.483v-2.483ZM27.41 54.62h-2.482v2.482h2.483v-2.483ZM39.824 54.62H37.34v2.482h2.483v-2.483ZM47.271 54.62H44.79v2.482h2.482v-2.483ZM52.236 54.62h-2.482v2.482h2.482v-2.483ZM57.202 54.62h-2.483v2.482h2.483v-2.483ZM62.167 54.62h-2.483v2.482h2.483v-2.483ZM72.097 54.62h-2.482v2.482h2.482v-2.483ZM22.445 57.102h-2.482v2.483h2.482v-2.483ZM27.41 57.102h-2.482v2.483h2.483v-2.483ZM32.376 57.102h-2.483v2.483h2.483v-2.483ZM37.34 57.102h-2.482v2.483h2.483v-2.483Z" fill="#000"/>
  <path d="M39.824 57.102H37.34v2.483h2.483v-2.483ZM44.789 57.102h-2.483v2.483h2.483v-2.483ZM52.236 57.102h-2.482v2.483h2.482v-2.483ZM62.167 57.102h-2.483v2.483h2.483v-2.483ZM64.65 57.102h-2.483v2.483h2.482v-2.483ZM69.615 57.102h-2.483v2.483h2.483v-2.483ZM22.445 59.585h-2.482v2.482h2.482v-2.482ZM24.928 59.585h-2.483v2.482h2.483v-2.482ZM29.893 59.585h-2.482v2.482h2.482v-2.482ZM34.858 59.585h-2.482v2.482h2.482v-2.482ZM37.34 59.585h-2.482v2.482h2.483v-2.482ZM42.306 59.585h-2.482v2.482h2.482v-2.482ZM49.754 59.585H47.27v2.482h2.483v-2.482ZM52.236 59.585h-2.482v2.482h2.482v-2.482ZM54.719 59.585h-2.483v2.482h2.483v-2.482ZM57.202 59.585h-2.483v2.482h2.483v-2.482ZM59.684 59.585h-2.482v2.482h2.482v-2.482ZM62.167 59.585h-2.483v2.482h2.483v-2.482ZM72.097 59.585h-2.482v2.482h2.482v-2.482ZM27.41 62.067h-2.482v2.483h2.483v-2.483ZM32.376 62.067h-2.483v2.483h2.483v-2.483ZM39.824 62.067H37.34v2.483h2.483v-2.483ZM49.754 62.067H47.27v2.483h2.483v-2.483ZM52.236 62.067h-2.482v2.483h2.482v-2.483ZM54.719 62.067h-2.483v2.483h2.483v-2.483ZM57.202 62.067h-2.483v2.483h2.483v-2.483ZM62.167 62.067h-2.483v2.483h2.483v-2.483ZM64.65 62.067h-2.483v2.483h2.482v-2.483Z" fill="#000"/>
  <path d="M67.132 62.067h-2.483v2.483h2.483v-2.483Z" fill="#000"/>
  <path d="M69.615 62.067h-2.483v2.483h2.483v-2.483ZM24.928 64.55h-2.483v2.482h2.483V64.55ZM29.893 64.55h-2.482v2.482h2.482V64.55Z" fill="#000"/>
  <path d="M32.376 64.55h-2.483v2.482h2.483V64.55ZM34.858 64.55h-2.482v2.482h2.482V64.55ZM37.34 64.55h-2.482v2.482h2.483V64.55ZM47.271 64.55H44.79v2.482h2.482V64.55Z" fill="#000"/>
  <path d="M49.754 64.55H47.27v2.482h2.483V64.55ZM54.719 64.55h-2.483v2.482h2.483V64.55ZM57.202 64.55h-2.483v2.482h2.483V64.55ZM64.65 64.55h-2.483v2.482h2.482V64.55Z" fill="#000"/>
  <path d="M67.132 64.55h-2.483v2.482h2.483V64.55Z" fill="#000"/>
  <path d="M69.615 64.55h-2.483v2.482h2.483V64.55ZM72.097 64.55h-2.482v2.482h2.482V64.55ZM22.445 67.032h-2.482v2.483h2.482v-2.483ZM27.41 67.032h-2.482v2.483h2.483v-2.483ZM29.893 67.032h-2.482v2.483h2.482v-2.483ZM34.858 67.032h-2.482v2.483h2.482v-2.483ZM42.306 67.032h-2.482v2.483h2.482v-2.483ZM44.789 67.032h-2.483v2.483h2.483v-2.483ZM47.271 67.032H44.79v2.483h2.482v-2.483Z" fill="#000"/>
  <path d="M49.754 67.032H47.27v2.483h2.483v-2.483ZM52.236 67.032h-2.482v2.483h2.482v-2.483ZM57.202 67.032h-2.483v2.483h2.483v-2.483ZM67.132 67.032h-2.483v2.483h2.483v-2.483ZM22.445 69.515h-2.482v2.483h2.482v-2.483ZM27.41 69.515h-2.482v2.483h2.483v-2.483ZM32.376 69.515h-2.483v2.483h2.483v-2.483ZM34.858 69.515h-2.482v2.483h2.482v-2.483ZM44.789 69.515h-2.483v2.483h2.483v-2.483ZM57.202 69.515h-2.483v2.483h2.483v-2.483ZM59.684 69.515h-2.482v2.483h2.482v-2.483ZM62.167 69.515h-2.483v2.483h2.483v-2.483ZM64.65 69.515h-2.483v2.483h2.482v-2.483ZM69.615 69.515h-2.483v2.483h2.483v-2.483ZM.628 0A.53.53 0 0 0 .1.529v16.325c0 .29.235.53.528.53h16.326a.53.53 0 0 0 .529-.53V.53a.53.53 0 0 0-.53-.529H.629Zm14.37 14.595a.302.302 0 0 1-.303.303H2.888a.302.302 0 0 1-.303-.303V2.788c0-.169.136-.303.303-.303h11.807c.169 0 .303.137.303.303v11.807Z" fill="#000"/>
  <path d="M12.515 5.494a.53.53 0 0 0-.529-.529H5.594a.53.53 0 0 0-.53.529v6.395c0 .29.237.529.53.529h6.392a.53.53 0 0 0 .529-.529V5.494ZM55.245 0a.53.53 0 0 0-.528.529v16.325c0 .29.235.53.528.53h16.326a.53.53 0 0 0 .529-.53V.53A.53.53 0 0 0 71.57 0H55.246Zm14.37 14.595a.302.302 0 0 1-.303.303H57.505a.302.302 0 0 1-.303-.303V2.788c0-.169.136-.303.303-.303h11.807c.169 0 .303.137.303.303v11.807Z" fill="#000"/>
  <path d="M67.132 5.494a.53.53 0 0 0-.529-.529h-6.392a.53.53 0 0 0-.53.529v6.395c0 .29.237.529.53.529h6.392a.53.53 0 0 0 .529-.529V5.494ZM.628 54.617a.53.53 0 0 0-.528.529V71.47c0 .29.235.529.528.529h16.326a.53.53 0 0 0 .529-.529V55.146a.53.53 0 0 0-.53-.53H.629Zm14.37 14.595a.302.302 0 0 1-.303.303H2.888a.302.302 0 0 1-.303-.303V57.405c0-.169.136-.303.303-.303h11.807c.169 0 .303.137.303.303v11.807Z" fill="#000"/>
  <path d="M12.515 60.11a.53.53 0 0 0-.529-.528H5.594a.53.53 0 0 0-.53.529v6.395c0 .29.237.529.53.529h6.392a.53.53 0 0 0 .529-.529v-6.395Z" fill="#000"/>
</svg>
